<svg xmlns="http://www.w3.org/2000/svg" viewBox="0 0 1600 520" preserveAspectRatio="xMidYMid slice">
  <defs>
    <linearGradient id="skyn" x1="0" y1="0" x2="0" y2="1">
      <stop offset="0" stop-color="#c2d6e2"/>
      <stop offset="1" stop-color="#e9f0ef"/>
    </linearGradient>
    <linearGradient id="sean" x1="0" y1="0" x2="0" y2="1">
      <stop offset="0" stop-color="#5b8497"/>
      <stop offset="1" stop-color="#84a6b2"/>
    </linearGradient>
  </defs>
  <rect width="1600" height="520" fill="url(#skyn)"/>
  <ellipse cx="420" cy="105" rx="170" ry="28" fill="#ffffff" opacity="0.5"/>
  <ellipse cx="1150" cy="95" rx="190" ry="26" fill="#ffffff" opacity="0.45"/>
  <path d="M0 300 C 260 270 460 300 720 286 C 1000 271 1300 300 1600 288 L1600 360 L0 360 Z" fill="#7e8f86"/>
  <rect y="356" width="1600" height="164" fill="url(#sean)"/>
  <g fill="#3f5a4f">
    <rect x="120" y="300" width="26" height="60"/>
    <rect x="150" y="290" width="26" height="70"/>
    <rect x="180" y="296" width="26" height="64"/>
    <rect x="210" y="284" width="26" height="76"/>
    <rect x="240" y="294" width="26" height="66"/>
    <rect x="270" y="302" width="26" height="58"/>
  </g>
  <g fill="#4b6a5d">
    <rect x="123" y="294" width="20" height="8"/><rect x="153" y="284" width="20" height="8"/>
    <rect x="183" y="290" width="20" height="8"/><rect x="213" y="278" width="20" height="8"/>
    <rect x="243" y="288" width="20" height="8"/><rect x="273" y="296" width="20" height="8"/>
  </g>
  <g fill="#ffffff" opacity="0.25">
    <rect x="420" y="392" width="360" height="3"/><rect x="900" y="416" width="420" height="3"/><rect x="500" y="446" width="300" height="3"/>
  </g>
</svg>
